<?xml version="1.0" standalone="no"?>
<!DOCTYPE svg PUBLIC "-//W3C//DTD SVG 20010904//EN"
 "http://www.w3.org/TR/2001/REC-SVG-20010904/DTD/svg10.dtd">
<svg version="1.0" xmlns="http://www.w3.org/2000/svg"
 width="2000.000000pt" height="2000.000000pt" viewBox="0 0 2000.000000 2000.000000"
 preserveAspectRatio="xMidYMid meet">

<g transform="translate(0.000000,2000.000000) scale(0.100000,-0.100000)"
fill="#000000" stroke="none">
<path d="M9540 17155 c0 -13 21 -15 125 -15 104 0 125 2 125 15 0 13 -21 15
-125 15 -104 0 -125 -2 -125 -15z"/>
<path d="M8306 16959 c-3 -17 -6 -47 -6 -65 l0 -34 2296 0 2295 0 -6 -92 c-8
-130 -425 -9485 -425 -9547 l0 -51 59 0 60 0 5 43 c3 23 55 1174 116 2557 60
1383 112 2544 115 2580 2 36 7 128 10 205 3 77 48 1096 100 2265 52 1169 95
2135 95 2147 l0 23 -2354 0 -2353 0 -7 -31z"/>
<path d="M14090 16090 c0 -5 4 -10 8 -10 5 0 17 -15 27 -33 15 -29 16 -39 6
-69 -14 -44 -79 -105 -155 -148 -59 -33 -121 -95 -136 -136 -17 -43 -11 -145
9 -191 26 -56 88 -121 150 -158 41 -24 50 -34 46 -50 -3 -11 -12 -60 -21 -110
-19 -104 -14 -296 8 -358 14 -38 14 -38 25 75 6 62 19 144 29 181 18 73 31 86
94 97 53 8 47 36 -8 33 -23 -1 -41 1 -39 5 28 62 22 59 110 54 52 -2 108 2
152 12 304 67 337 68 363 13 12 -25 8 -44 -44 -215 -84 -275 -85 -372 -4 -372
24 0 29 5 39 45 13 53 82 140 131 166 51 28 112 25 149 -6 29 -25 30 -25 41
-6 5 11 10 49 9 84 -1 35 3 73 10 84 6 12 39 43 74 70 48 39 66 60 75 90 27
90 10 128 -85 198 -34 24 -63 50 -66 57 -2 7 -2 42 0 78 5 62 3 67 -29 113
-65 90 -171 149 -267 149 -51 0 -68 -5 -127 -41 -257 -155 -556 -139 -506 27
6 21 32 66 56 101 71 101 71 150 -2 171 -47 13 -122 13 -122 0z"/>
<path d="M11052 15925 c-138 -60 -209 -230 -152 -363 25 -58 80 -114 136 -137
56 -23 159 -19 219 9 211 98 216 406 9 492 -43 18 -170 17 -212 -1z"/>
<path d="M10235 15606 c-162 -39 -297 -185 -326 -353 -29 -167 63 -343 218
-420 53 -26 67 -28 169 -28 107 0 112 1 186 38 171 84 273 274 239 448 -45
230 -261 370 -486 315z"/>
<path d="M13106 15518 c-5 -24 -27 -539 -26 -615 0 -30 4 -43 14 -43 17 0 22
47 36 380 13 304 13 300 -5 300 -8 0 -17 -10 -19 -22z"/>
<path d="M14387 15103 c-4 -3 -7 -13 -7 -20 0 -10 9 -12 35 -7 21 4 48 1 66
-6 40 -17 61 1 28 24 -23 16 -109 23 -122 9z"/>
<path d="M14136 15015 c-17 -46 10 -89 40 -65 23 20 15 74 -12 78 -13 2 -24
-4 -28 -13z"/>
<path d="M14410 15004 c-11 -29 2 -64 25 -64 20 0 38 38 31 66 -9 33 -43 32
-56 -2z"/>
<path d="M14257 14933 c-4 -12 -30 -56 -57 -97 -47 -73 -49 -76 -27 -81 78
-17 85 -12 92 58 4 34 5 80 3 102 -3 33 -4 36 -11 18z"/>
<path d="M14413 14710 c-31 -28 -87 -50 -127 -50 -15 0 -17 -3 -9 -11 18 -18
104 7 146 42 34 28 47 49 30 49 -5 0 -22 -14 -40 -30z"/>
<path d="M10160 14574 c-14 -2 -59 -9 -100 -15 -195 -29 -430 -136 -575 -261
l-39 -35 52 -65 c61 -77 130 -138 230 -203 333 -215 776 -200 1127 38 72 50
222 191 231 220 8 24 -33 63 -151 142 -135 90 -277 143 -457 169 -95 14 -253
19 -318 10z"/>
<path d="M14075 13950 c-183 -28 -340 -66 -396 -97 -28 -15 -81 -59 -116 -98
-59 -62 -79 -97 -189 -320 -67 -137 -124 -258 -126 -268 -2 -15 29 -37 142
-102 80 -46 145 -89 145 -97 0 -7 -6 -85 -14 -173 -14 -152 -21 -859 -9 -870
3 -3 44 12 91 34 47 22 88 37 91 34 3 -4 3 -23 0 -45 -7 -40 14 -78 41 -78 7
0 17 -24 23 -52 10 -51 9 -54 -16 -81 -23 -25 -132 -84 -184 -101 -23 -7 -23
-34 1 -214 l19 -142 -28 -263 c-44 -400 -116 -1119 -154 -1542 -97 -1056 -122
-1540 -96 -1806 62 -613 344 -1797 766 -3206 46 -156 84 -285 84 -287 0 -2
-15 -9 -32 -17 -18 -7 -35 -14 -37 -15 -1 -2 16 -38 40 -82 l43 -79 75 30
c220 87 456 189 469 202 6 5 -18 74 -44 130 -16 33 -43 156 -84 370 -268 1436
-404 2502 -387 3030 3 94 17 283 32 420 36 347 114 995 124 1025 5 17 11 -10
20 -95 83 -790 218 -1593 736 -4377 52 -280 95 -512 95 -518 0 -5 -8 -10 -19
-10 -18 0 -18 -3 2 -84 l21 -84 154 -7 c84 -4 221 -4 302 0 l149 7 -4 27 c-2
14 -7 47 -10 73 -3 25 -12 48 -19 51 -8 3 -15 31 -19 69 -3 34 -40 387 -81
783 -143 1365 -243 2401 -281 2905 -17 231 -81 1229 -155 2440 -45 726 -50
855 -50 1180 0 355 10 666 30 959 6 79 9 145 7 147 -1 2 -27 -38 -56 -89 -78
-134 -162 -246 -232 -311 -102 -95 -420 -241 -784 -361 -188 -61 -293 -90
-301 -82 -15 15 -23 84 -13 109 13 32 -6 72 -40 83 -49 15 -32 35 112 129 188
123 472 294 614 368 140 74 164 101 283 324 47 87 88 153 94 150 115 -49 461
-186 471 -186 28 0 184 233 251 375 64 135 87 235 82 355 -3 89 -7 104 -42
175 -45 91 -99 148 -171 181 -57 27 -294 67 -479 82 l-110 9 -52 -57 c-100
-108 -244 -160 -444 -163 -128 -1 -190 12 -226 48 -31 31 -31 77 1 133 13 23
21 42 17 41 -4 0 -61 -9 -127 -19z m130 -561 c0 -21 -6 -25 -40 -29 -104 -14
-200 -121 -235 -262 -11 -41 -16 -48 -36 -48 -28 0 -29 9 -8 81 40 137 139
244 254 275 56 16 65 13 65 -17z m249 -378 c-22 -102 -52 -160 -118 -229 -58
-62 -107 -90 -171 -99 -43 -5 -45 -5 -45 19 0 22 5 26 41 31 111 15 208 130
243 288 5 22 10 25 31 21 21 -4 24 -8 19 -31z"/>
<path d="M5753 13680 c-150 -16 -277 -82 -314 -163 -10 -23 -19 -49 -19 -57 0
-8 -20 -26 -45 -39 -47 -25 -79 -66 -96 -123 -16 -52 -12 -215 8 -329 12 -72
18 -159 18 -284 0 -184 -8 -243 -46 -332 -22 -51 -27 -48 124 -67 297 -38 502
-43 752 -16 87 10 287 40 293 45 1 1 -13 35 -32 76 -47 102 -74 188 -92 294
-9 53 -28 115 -45 149 -23 46 -29 73 -29 122 0 55 3 65 26 83 19 15 31 18 48
11 23 -8 24 -6 30 51 4 33 4 63 1 68 -5 10 6 15 63 26 32 6 32 7 32 63 l0 57
45 -50 c51 -58 56 -48 24 47 -64 191 -230 319 -464 357 -94 15 -203 19 -282
11z"/>
<path d="M6420 13054 c0 -29 4 -43 11 -39 6 4 9 20 7 36 -2 18 3 33 12 39 12
8 11 10 -7 10 -21 0 -23 -5 -23 -46z"/>
<path d="M8200 12922 c0 -33 -3 -107 -7 -165 l-6 -107 1096 0 1097 0 0 83 c0
45 3 119 7 165 l6 82 -1097 0 -1096 0 0 -58z"/>
<path d="M6431 12883 c-1 -64 2 -70 28 -54 12 8 11 18 -7 63 l-21 53 0 -62z"/>
<path d="M8445 12171 c-11 -5 -31 -21 -45 -36 -20 -22 -25 -37 -25 -81 0 -45
4 -58 28 -81 23 -24 36 -28 82 -28 79 0 120 41 120 120 0 46 -4 59 -26 81 -29
28 -97 41 -134 25z"/>
<path d="M8985 12170 c-40 -16 -68 -58 -73 -109 -4 -47 -2 -53 32 -87 34 -34
39 -36 87 -32 65 7 108 46 116 105 12 91 -76 159 -162 123z"/>
<path d="M9524 12170 c-41 -16 -74 -68 -74 -117 0 -38 5 -50 35 -80 33 -33 39
-35 86 -31 65 7 108 46 116 105 12 92 -76 159 -163 123z"/>
<path d="M5820 12159 c-47 -5 -136 -18 -199 -29 -116 -19 -151 -36 -151 -72 0
-14 -8 -18 -37 -18 -44 0 -199 -22 -326 -46 -77 -15 -93 -21 -122 -51 -19 -19
-52 -72 -74 -116 -47 -95 -125 -322 -117 -342 2 -7 94 -73 203 -145 109 -73
199 -134 201 -136 2 -1 12 -53 22 -115 34 -211 50 -425 50 -676 l0 -243 76 0
76 0 -7 -67 c-4 -38 -9 -71 -12 -75 -2 -5 -41 -8 -86 -8 l-82 0 -43 -110 c-23
-60 -57 -167 -74 -237 -27 -108 -32 -147 -32 -248 0 -102 3 -129 22 -177 27
-66 93 -144 157 -185 25 -15 45 -31 45 -35 0 -5 -146 -8 -324 -8 -205 0 -335
-4 -353 -11 -38 -14 -92 -67 -109 -106 -11 -25 -14 -94 -14 -296 0 -257 1
-265 23 -308 16 -29 40 -54 72 -74 l48 -30 768 0 768 0 25 -90 c41 -147 49
-212 49 -375 0 -121 -5 -178 -22 -260 -58 -276 -344 -1026 -612 -1606 l-89
-193 0 -111 0 -111 184 -90 c102 -49 189 -89 193 -89 5 0 28 27 51 60 l43 60
-26 12 c-14 6 -25 14 -25 18 0 5 38 70 84 146 136 225 271 472 395 724 293
591 447 1052 483 1445 l12 137 19 -43 c35 -82 77 -220 93 -309 l16 -89 -37
-133 c-115 -403 -330 -866 -648 -1393 -74 -123 -199 -320 -212 -333 -2 -2 -13
1 -24 7 -22 12 -21 13 -74 -79 l-25 -46 136 -91 c112 -74 191 -124 313 -199 3
-2 36 23 72 56 l66 59 -24 18 -24 18 80 100 c265 329 606 817 770 1104 206
362 328 676 348 898 39 448 -251 1169 -837 2081 -95 146 -270 403 -329 481
l-33 44 -148 1 -147 1 3 40 c1 22 5 55 8 73 l5 32 124 0 123 0 6 28 c12 59 77
509 102 707 22 175 24 216 14 243 -7 19 -8 37 -4 42 5 4 79 67 164 140 85 73
161 138 168 145 11 10 5 30 -31 113 -64 145 -133 258 -197 323 l-55 57 -113
21 c-62 11 -153 26 -203 33 -88 11 -92 13 -104 42 -16 38 -50 71 -90 87 -38
15 -275 20 -385 8z m415 -2041 c-4 -29 -8 -63 -11 -75 l-4 -23 -375 0 -375 0
0 29 c0 15 3 49 6 75 l7 46 379 0 379 0 -6 -52z"/>
<path d="M8110 10907 c0 -24 -3 -99 -7 -165 l-6 -122 901 0 900 0 6 73 c3 39
7 114 9 165 l4 92 -903 0 -904 0 0 -43z"/>
<path d="M8354 10140 c-11 -4 -33 -22 -47 -40 -39 -45 -38 -108 2 -152 27 -30
35 -33 85 -33 49 0 59 4 87 31 94 94 -4 244 -127 194z"/>
<path d="M8884 10134 c-40 -19 -64 -62 -64 -114 0 -34 6 -48 34 -76 56 -56
136 -44 183 25 70 104 -39 222 -153 165z"/>
<path d="M9424 10134 c-40 -19 -64 -62 -64 -114 0 -57 50 -110 104 -110 49 0
92 24 116 63 64 104 -44 216 -156 161z"/>
<path d="M9959 10133 c-38 -23 -59 -64 -59 -113 0 -57 50 -110 104 -110 100 0
164 96 121 180 -29 56 -112 77 -166 43z"/>
<path d="M10496 10131 c-40 -26 -55 -57 -56 -109 0 -37 6 -50 34 -78 27 -27
42 -34 74 -34 85 0 147 81 123 161 -21 71 -111 102 -175 60z"/>
<path d="M5251 5078 c-5 -13 -32 -74 -60 -137 -70 -156 -69 -168 24 -190 28
-7 58 -14 68 -17 16 -5 17 6 15 178 -3 165 -5 183 -20 186 -11 2 -21 -5 -27
-20z"/>
<path d="M5656 5069 c-14 -11 -28 -29 -31 -40 -6 -18 -12 -20 -46 -14 l-39 7
0 -151 0 -151 209 0 209 0 31 -25 c33 -29 55 -81 46 -116 -4 -21 9 -34 111
-109 141 -104 170 -120 211 -120 38 0 73 29 73 60 0 11 -32 60 -71 108 -65 80
-159 245 -147 257 3 3 19 -2 35 -11 19 -12 38 -15 57 -10 43 11 31 46 -24 73
-30 15 -38 22 -25 23 49 2 72 50 34 70 -23 13 -71 1 -100 -26 -15 -14 -29 -6
-155 82 -186 130 -179 128 -235 69 -37 -39 -52 -48 -81 -49 l-36 -1 19 24 c39
50 4 89 -45 50z m48 -7 c3 -5 -10 -23 -28 -41 -39 -38 -53 -29 -26 17 19 31
43 41 54 24z m9 -103 c-22 -22 -43 -19 -43 7 0 9 11 14 32 14 l32 0 -21 -21z
m573 -60 c9 -16 -6 -27 -54 -37 -53 -12 -63 1 -20 28 37 22 63 26 74 9z m-8
-89 c44 -20 49 -40 9 -40 -20 0 -97 44 -97 55 0 11 48 3 88 -15z"/>
<path d="M14655 3840 c-163 -44 -271 -81 -297 -100 -15 -11 -29 -20 -32 -20
-2 0 -13 16 -24 35 -24 40 -66 56 -88 33 -14 -13 -12 -19 11 -46 18 -21 22
-32 13 -35 -7 -3 5 -6 26 -6 l39 -1 -39 26 c-43 29 -55 44 -48 56 18 29 99
-34 92 -71 -7 -33 -115 -64 -144 -40 -14 12 -14 14 2 26 15 11 15 13 2 13 -23
0 -30 -27 -11 -46 13 -12 28 -15 62 -10 l46 5 -35 -30 c-41 -35 -170 -111
-238 -140 -26 -11 -85 -25 -131 -30 -46 -5 -88 -12 -92 -15 -16 -10 -9 -61 12
-87 30 -39 82 -49 217 -42 154 8 185 15 348 75 76 29 219 74 318 101 100 28
186 55 193 61 7 6 13 19 13 29 0 23 -127 279 -138 278 -4 0 -38 -9 -77 -19z"/>
<path d="M15304 3735 c-4 -9 -2 -27 5 -41 15 -34 15 -34 -19 -22 -37 12 -60 5
-60 -20 0 -25 19 -42 47 -42 93 0 -126 -108 -317 -157 -26 -6 -36 -15 -38 -32
-6 -38 7 -70 34 -88 23 -15 66 -16 427 -15 327 2 404 5 415 16 12 12 11 34 -7
147 -32 199 -8 179 -224 179 l-183 0 -19 43 c-21 44 -51 60 -61 32z m55 -38
c7 -21 11 -41 7 -45 -11 -10 -56 46 -56 69 0 34 33 18 49 -24z m-54 -41 c46
-19 44 -36 -2 -36 -46 0 -68 13 -60 34 8 20 18 20 62 2z"/>
<path d="M14198 3713 c7 -3 16 -2 19 1 4 3 -2 6 -13 5 -11 0 -14 -3 -6 -6z"/>
</g>
</svg>
